<svg xmlns="http://www.w3.org/2000/svg" width="1em" height="1em" viewBox="0 0 14 14">
  <path fill="currentColor" fill-rule="evenodd" d="M1.5 0A1.5 1.5 0 0 0 0 1.5V11a1.5 1.5 0 0 0 1.5 1.5v.702a.75.75 0 0 0 1.5 0V12.5h8v.702a.75.75 0 0 0 1.5 0V12.5A1.5 1.5 0 0 0 14 11V1.5A1.5 1.5 0 0 0 12.5 0zm7.25 4.943c-.721 0-1.306.584-1.307 1.304v.006a1.307 1.307 0 1 0 1.307-1.31M8.124 3.77a2.5 2.5 0 0 0-.687.284l-.587-.587a.625.625 0 0 0-.884.884l.587.587a2.5 2.5 0 0 0-.284.687h-.832a.625.625 0 0 0 0 1.25h.832q.093.369.284.687l-.587.587a.625.625 0 0 0 .884.884l.587-.587q.318.19.687.284v.832a.625.625 0 1 0 1.25 0V8.73q.369-.093.687-.284l.587.587a.625.625 0 0 0 .884-.884l-.587-.587q.19-.318.284-.687h.832a.625.625 0 0 0 0-1.25h-.832a2.5 2.5 0 0 0-.284-.687l.587-.587a.625.625 0 1 0-.884-.884l-.587.587a2.5 2.5 0 0 0-.687-.284v-.832a.625.625 0 1 0-1.25 0zm-5.007.364a.625.625 0 0 0-1.25 0v4.232a.625.625 0 1 0 1.25 0z" clip-rule="evenodd" />
</svg>